<?xml version="1.0" encoding="UTF-8"?>
<svg version="1.1" xmlns="http://www.w3.org/2000/svg" width="128" height="128">
<path d="M0 0 C2.125 2.875 2.125 2.875 4 6 C7.4942971 8.74551915 11.75050881 8.40387726 16 8 C20.27755137 6.81179129 21.76865488 3.66578128 24 0 C35.49791578 0.55635076 43.33421609 5.73664972 52 13 C51.125 19.75 51.125 19.75 50 22 C49.6248545 26.97067782 49.84121201 30.05151502 53 34 C55.88217776 35.74041569 58.24822264 36.2092014 61.5625 36.5625 C65.56143324 37.45042103 65.56143324 37.45042103 67.25 39.56640625 C70.58805208 48.02387475 70.48617393 60.65583641 67 69 C65.09545071 70.46503792 63.43916519 70.91234769 61.1015625 71.37890625 C57.47124888 72.12791148 55.38200112 72.67529905 52.5 75.125 C50.41055485 79.12976987 50.57121015 81.49770654 51 86 C51.65129797 87.34090759 52.31513275 88.67592331 53 90 C52.77161222 93.21336289 52.30332116 94.6704659 50.1015625 97.0625 C42.89926289 102.69710664 34.62700439 109.1379747 25 108 C23.171875 106.50390625 23.171875 106.50390625 21.75 104.5625 C19.76906677 101.82016018 19.76906677 101.82016018 17 100 C12.48809992 99.45928113 9.0643364 99.35214306 5.125 101.75 C2.94445279 103.86475809 2.94445279 103.86475809 1.75 106.3125 C0 108 0 108 -1.796875 108.23828125 C-11.46177569 107.74132714 -19.44978458 101.81450868 -26.63671875 95.80859375 C-28.47309566 93.3723688 -28.39169801 91.99072953 -28 89 C-27.33950848 87.66359693 -26.6729932 86.33015126 -26 85 C-25.69702929 80.58750348 -26.16301401 77.05298238 -28.9375 73.5625 C-32.55014262 71.71931499 -35.78312831 71.21199084 -39.79296875 70.78515625 C-42 70 -42 70 -43.12133789 67.77124023 C-44.00974335 64.96927015 -44.25797802 62.80270092 -44.265625 59.875 C-44.26820312 58.92109375 -44.27078125 57.9671875 -44.2734375 56.984375 C-44.26570313 55.99953125 -44.25796875 55.0146875 -44.25 54 C-44.25773437 53.01515625 -44.26546875 52.0303125 -44.2734375 51.015625 C-44.27085938 50.06171875 -44.26828125 49.1078125 -44.265625 48.125 C-44.26336914 47.26132812 -44.26111328 46.39765625 -44.25878906 45.5078125 C-43.96490305 42.65989068 -43.30760059 40.54543295 -42 38 C-39.28515625 36.9609375 -39.28515625 36.9609375 -36.0625 36.375 C-30.75215833 35.51412821 -30.75215833 35.51412821 -27 32 C-26.35159685 29.8695448 -26.35159685 29.8695448 -26.1875 27.5625 C-26.09855469 26.80066406 -26.00960938 26.03882812 -25.91796875 25.25390625 C-25.84500105 22.96859658 -25.84500105 22.96859658 -26.98828125 21.02734375 C-28.28398341 18.43093672 -28.4214587 16.86950605 -28 14 C-22.04710619 6.40790355 -9.96696286 -1.42385184 0 0 Z M18 35 C15.08962445 40.48964635 12.19686514 45.98822757 9.31738281 51.49414062 C8.13804981 53.7374086 6.94275247 55.97118037 5.7421875 58.203125 C5.09825236 59.42671206 4.45497473 60.65064548 3.8125 61.875 C3.24144531 62.94492188 2.67039063 64.01484375 2.08203125 65.1171875 C0.88824941 68.29773263 0.98098027 69.80746419 2 73 C4.37744102 73.03846913 4.37744102 73.03846913 7 72 C8.60609273 69.67435633 9.80892871 67.59802242 11.0234375 65.078125 C11.37387115 64.38112488 11.72430481 63.68412476 12.08535767 62.96600342 C12.82165379 61.49077352 13.54902874 60.01106207 14.26806641 58.52734375 C15.36977445 56.26075075 16.5045176 54.01315083 17.64453125 51.765625 C18.35620728 50.32913417 19.06590972 48.89166353 19.7734375 47.453125 C20.11289398 46.78210754 20.45235046 46.11109009 20.80209351 45.41973877 C22.64716911 41.55664035 23.41969556 39.11583278 22 35 C20.68 35 19.36 35 18 35 Z M-15.02148438 43.37695312 C-15.61251953 43.97443359 -16.20355469 44.57191406 -16.8125 45.1875 C-17.42287109 45.76564453 -18.03324219 46.34378906 -18.66210938 46.93945312 C-22.02764368 50.18843283 -22.02764368 50.18843283 -23.24609375 54.52734375 C-21.4602806 58.07097924 -19.0569255 60.60149028 -16.25 63.375 C-15.7240625 63.93316406 -15.198125 64.49132812 -14.65625 65.06640625 C-12.91813055 66.87941623 -12.91813055 66.87941623 -10 69 C-7.17807278 69.01270758 -7.17807278 69.01270758 -5 68 C-5.48713098 63.58489226 -6.85053197 61.69553355 -10.0625 58.6875 C-10.79597656 57.99011719 -11.52945313 57.29273437 -12.28515625 56.57421875 C-12.85105469 56.05472656 -13.41695312 55.53523438 -14 55 C-12.60005228 51.75240554 -10.9554506 49.88379333 -8.3125 47.5625 C-6.42585856 45.82871565 -6.42585856 45.82871565 -5 44 C-4.86789525 41.13079138 -4.86789525 41.13079138 -6 39 C-10.95272398 39 -11.66747366 40.10520354 -15.02148438 43.37695312 Z M30 39 C29.09741 41.25318305 29.09741 41.25318305 29 44 C30.84362256 46.57087891 30.84362256 46.57087891 33.4375 48.8125 C34.28183594 49.60269531 35.12617187 50.39289062 35.99609375 51.20703125 C36.65738281 51.79871094 37.31867188 52.39039063 38 53 C36.60005228 56.24759446 34.9554506 58.11620667 32.3125 60.4375 C30.42585856 62.17128435 30.42585856 62.17128435 29 64 C28.86789525 66.86920862 28.86789525 66.86920862 30 69 C35.28691229 68.64622892 37.83611042 65.83152681 41.375 62.25 C41.93316406 61.7240625 42.49132812 61.198125 43.06640625 60.65625 C46.14670071 57.58774506 46.14670071 57.58774506 47.21484375 53.50390625 C45.47329098 49.9144036 43.02958083 47.44904961 40.1875 44.6875 C39.38602539 43.86282227 39.38602539 43.86282227 38.56835938 43.02148438 C35.00250196 39.46190977 35.00250196 39.46190977 30 39 Z " fill="#2159A5" transform="translate(52,10)"/>
</svg>
