<?xml version="1.0" encoding="UTF-8"?>
<svg version="1.1" xmlns="http://www.w3.org/2000/svg" width="128" height="128">
<path d="M0 0 C1.39133688 1.71669565 2.60612976 3.50321396 3.828125 5.34375 C5.37717803 7.53307829 6.38815895 8.32838373 9 9 C13.77667642 9.46225901 16.01903323 9.49973779 20.3125 7.3125 C23.09573526 5.17290824 23.09573526 5.17290824 24.5625 2.3125 C26 0 26 0 28.23828125 -0.76953125 C37.06779328 -1.50636464 47.16854331 5.97753102 54 11 C56.3203125 13.03125 56.3203125 13.03125 58 15 C57.86325147 18.21359048 57.21964397 20.52410473 55.875 23.4375 C54.35198768 27.89775038 55.36170916 31.63223391 57.3125 35.8125 C59.63366036 38.82141158 61.72754811 39.80099094 65.47265625 40.38671875 C66.32730469 40.48597656 67.18195313 40.58523437 68.0625 40.6875 C70.71875 41.1796875 70.71875 41.1796875 73 42 C78.50362089 50.8391487 78.19527556 63.39668527 76.0625 73.3125 C75 77 75 77 74 78 C72.44213197 78.29631765 70.8783965 78.56205019 69.3125 78.8125 C64.74994632 79.6936799 61.60268553 80.9377173 58 84 C56.07503452 87.0350289 55.79481837 89.02286394 56.25 92.5625 C56.33765625 93.32691406 56.4253125 94.09132813 56.515625 94.87890625 C56.93264059 97.28412893 56.93264059 97.28412893 59 100 C58.93229307 103.87491983 58.46321694 105.51325715 55.76953125 108.34375 C38.09662427 121.23073105 38.09662427 121.23073105 29.31640625 120.8984375 C26.43256192 119.7799144 25.27055546 118.42354123 23.375 116 C20.81132796 112.6749581 20.81132796 112.6749581 17 111 C11.69065334 110.65746151 8.25090277 110.45758102 4 114 C3.34 115.03125 2.68 116.0625 2 117.125 C0 120 0 120 -2.28125 120.796875 C-12.19281897 121.53739452 -22.44999737 112.73574827 -30 107 C-30.66 106.34 -31.32 105.68 -32 105 C-31.73951977 101.54863699 -31.36841706 98.73683413 -29.8125 95.625 C-28.53163961 91.48683567 -29.4633713 87.98329965 -31 84 C-34.58519966 79.48958752 -39.14171673 79.24409636 -44.57421875 78.58984375 C-47 78 -47 78 -49 75 C-50.43100302 70.16922548 -50.1838442 65.11882105 -50.1875 60.125 C-50.19974609 59.25230469 -50.21199219 58.37960938 -50.22460938 57.48046875 C-50.23638956 52.25792031 -49.76722535 47.92720822 -48 43 C-46.40255537 41.40255537 -44.44295006 41.49481702 -42.25 41.125 C-36.69441976 40.03752676 -36.69441976 40.03752676 -32 37 C-29.9400635 33.36077884 -28.9406838 31.00837546 -29.1875 26.8125 C-29.88387406 24.06225654 -29.88387406 24.06225654 -31.0625 21.9375 C-32.2846522 19.4117188 -32.28948841 17.78580154 -32 15 C-26.54107082 7.93998824 -9.31665778 -4.65832889 0 0 Z " fill="#4085E4" transform="translate(51,4)"/>
<path d="M0 0 C4.50762661 1.38162756 6.88646288 3.86201891 10.11328125 7.19921875 C10.69787109 7.76447266 11.28246094 8.32972656 11.88476562 8.91210938 C14.56752426 11.62595444 16.13828657 13.53073451 17.375 17.19140625 C17.28512803 20.60654093 16.66500742 21.53913475 14.30078125 23.94921875 C13.65238281 24.61953125 13.00398438 25.28984375 12.3359375 25.98046875 C11.66433594 26.65078125 10.99273437 27.32109375 10.30078125 28.01171875 C9.70136719 28.68203125 9.10195312 29.35234375 8.484375 30.04296875 C5.70580639 33.07639488 3.96665494 34.79813662 -0.01171875 36.07421875 C-2.69921875 36.01171875 -2.69921875 36.01171875 -4.69921875 34.01171875 C-5.13671875 31.71875 -5.13671875 31.71875 -4.69921875 29.01171875 C-2.51171875 26.3359375 -2.51171875 26.3359375 0.30078125 23.69921875 C1.22890625 22.81621094 2.15703125 21.93320313 3.11328125 21.0234375 C3.83515625 20.35957031 4.55703125 19.69570312 5.30078125 19.01171875 C3.46430646 14.67183884 0.43634813 12.20244854 -3.01953125 9.109375 C-4.69921875 7.01171875 -4.69921875 7.01171875 -5.06640625 4.3828125 C-4.51787709 0.84071462 -3.58098982 0.01554699 0 0 Z " fill="#F5F9FD" transform="translate(86.69921875,45.98828125)"/>
<path d="M0 0 C1 1 1 1 1.375 3.23046875 C0.83760974 7.19931973 -1.11833854 8.61094238 -4 11.3125 C-5.3921875 12.63701172 -5.3921875 12.63701172 -6.8125 13.98828125 C-7.534375 14.65214844 -8.25625 15.31601562 -9 16 C-7.53871465 19.47925085 -5.6239874 21.39691022 -2.8125 23.875 C-0.64453125 25.9609375 -0.64453125 25.9609375 1 28 C1 31.5 1 31.5 0 34 C-2.54296875 34.91015625 -2.54296875 34.91015625 -6 35 C-8.83652715 33.20562019 -11.01709397 30.86807189 -13.3125 28.4375 C-13.94478516 27.81552734 -14.57707031 27.19355469 -15.22851562 26.55273438 C-18.01797036 23.69152517 -19.79450156 21.59834175 -21.10546875 17.78125 C-20.97748607 14.40629939 -20.33990198 13.44778801 -18 11.0625 C-17.35675781 10.3921875 -16.71351562 9.721875 -16.05078125 9.03125 C-15.03564453 8.02578125 -15.03564453 8.02578125 -14 7 C-13.35417969 6.3296875 -12.70835938 5.659375 -12.04296875 4.96875 C-5.76720576 -1.47877071 -5.76720576 -1.47877071 0 0 Z " fill="#F6F9FD" transform="translate(45,47)"/>
<path d="M0 0 C4.55555556 0.55555556 4.55555556 0.55555556 6 2 C5.62190672 7.74573304 3.83758522 12.0115634 1.21875 17.0859375 C0.84520386 17.82832672 0.47165771 18.57071594 0.08679199 19.33560181 C-1.09947829 21.68692579 -2.29971446 24.03080524 -3.5 26.375 C-4.30686654 27.97221354 -5.11286512 29.56986586 -5.91796875 31.16796875 C-11.80366242 42.80366242 -11.80366242 42.80366242 -13 44 C-16 44.125 -16 44.125 -19 44 C-19.33 43.67 -19.66 43.34 -20 43 C-19.61939442 37.27446758 -17.85538721 33.0111976 -15.25390625 27.94921875 C-14.88273178 27.2092012 -14.51155731 26.46918365 -14.12913513 25.70674133 C-13.3478797 24.15392244 -12.56183152 22.60350648 -11.77124023 21.05541992 C-10.55984243 18.68229383 -9.36374448 16.30193007 -8.16992188 13.91992188 C-7.40712782 12.40841085 -6.64348556 10.89732751 -5.87890625 9.38671875 C-5.52051163 8.67529221 -5.162117 7.96386566 -4.79286194 7.23088074 C-3.38895917 4.48968196 -2.1921506 2.1921506 0 0 Z " fill="#F8FAFE" transform="translate(71,42)"/>
</svg>
